<?xml version="1.0" encoding="UTF-8"?>
<svg width="640px" height="184px" viewBox="0 0 640 184" version="1.1" xmlns="http://www.w3.org/2000/svg" xmlns:xlink="http://www.w3.org/1999/xlink">
    <title>Ethernet Frame PDU</title>
    <g id="Ethernet-Frame-PDU" stroke="none" stroke-width="1" fill="none" fill-rule="evenodd">
        <rect fill="#F5FCFF" x="0" y="0" width="640" height="184"></rect>
        <polygon id="Fill-22" fill="#FFFFFF" points="20 129 620 129 620 59 20 59"></polygon>
        <path d="M620.5,58.5 L19.5,58.5 L19.5,129.5 L620.5,129.5 L620.5,58.5 Z M619.5,59.5 L619.5,128.5 L20.5,128.5 L20.5,59.5 L619.5,59.5 Z" id="Stroke-24" fill="#10162F" fill-rule="nonzero"></path>
        <g id="7-Bytes" transform="translate(55.475400, 135.513468)" fill="#10162F" fill-rule="nonzero">
            <path d="M15.288,0.936 L20.052,0.936 C17.988,2.628 16.572,5.58 16.38,8.7 L17.64,8.7 C17.724,5.508 19.176,2.64 21.396,0.936 L21.396,0 L15.288,0 L15.288,0.936 Z" id="Path"></path>
            <path d="M0,24.7 L2.832,24.7 C4.392,24.7 5.748,23.968 5.748,22.12 C5.748,21.052 5.304,20.404 4.56,20.056 C5.112,19.708 5.424,18.976 5.424,18.148 C5.424,16.42 4.02,16 2.568,16 L0,16 L0,24.7 Z M1.14,20.716 L2.844,20.716 C4.02,20.716 4.572,21.112 4.572,22.132 C4.572,23.116 4.02,23.62 2.928,23.62 L1.14,23.62 L1.14,20.716 Z M1.14,17.08 L2.808,17.08 C3.684,17.08 4.284,17.428 4.284,18.316 C4.284,19.336 3.708,19.696 2.808,19.696 L1.14,19.696 L1.14,17.08 Z" id="Shape"></path>
            <path d="M8.748,26.8 C10.116,26.8 10.476,26.248 10.932,24.976 L13.32,18.244 L12.18,18.244 L10.464,23.224 L8.712,18.244 L7.5,18.244 L9.912,24.7 L9.864,24.844 C9.528,25.768 9.312,25.852 8.64,25.852 L7.476,25.852 L7.476,26.8 L8.748,26.8 Z" id="Path"></path>
            <path d="M16.668,18.244 L14.832,18.244 L14.832,19.192 L16.668,19.192 L16.668,23.08 C16.668,24.424 17.004,24.7 18.18,24.7 L20.412,24.7 L20.412,23.752 L18.42,23.752 C17.808,23.752 17.772,23.584 17.772,22.924 L17.772,19.192 L20.412,19.192 L20.412,18.244 L17.772,18.244 L17.772,16.624 L16.668,16.624 L16.668,18.244 Z" id="Path"></path>
            <path d="M25.968,24.856 C27.48,24.856 28.488,23.992 28.752,22.768 L27.612,22.768 C27.384,23.5 26.904,23.956 25.944,23.956 C24.924,23.956 24.204,23.104 24.204,21.808 L28.848,21.808 C28.932,19.504 27.852,18.124 25.968,18.124 C24.264,18.124 23.04,19.42 23.04,21.496 C23.04,23.404 24.012,24.856 25.968,24.856 Z M25.968,19.036 C27.096,19.036 27.684,19.84 27.672,20.896 L24.216,20.896 C24.264,19.648 24.924,19.036 25.968,19.036 Z" id="Shape"></path>
            <path d="M36.168,20.008 C35.928,18.856 34.992,18.136 33.624,18.136 C32.544,18.136 31.188,18.676 31.188,19.924 C31.188,21.04 31.992,21.544 33.012,21.748 L33.816,21.904 C34.632,22.048 35.172,22.348 35.172,22.948 C35.172,23.704 34.416,23.944 33.732,23.944 C32.832,23.944 32.376,23.512 32.232,22.768 L31.068,22.768 C31.188,23.8 32.028,24.856 33.708,24.856 C35.112,24.856 36.288,24.184 36.288,22.816 C36.288,21.52 35.088,21.1 33.972,20.884 L33.252,20.74 C32.616,20.608 32.28,20.38 32.28,19.876 C32.28,19.3 32.928,19.048 33.576,19.048 C34.308,19.048 34.872,19.288 35.016,20.008 L36.168,20.008 Z" id="Path"></path>
        </g>
        <g id="1-Byte" transform="translate(122.851400, 135.513468)" fill="#10162F" fill-rule="nonzero">
            <path d="M14.352,0 C13.908,0.948 13.2,1.104 11.748,1.14 L11.748,1.896 L13.968,1.896 L13.968,7.752 L11.748,7.752 L11.748,8.7 L16.896,8.7 L16.896,7.752 L15.072,7.752 L15.072,0 L14.352,0 Z" id="Path"></path>
            <path d="M0,24.7 L2.832,24.7 C4.392,24.7 5.748,23.968 5.748,22.12 C5.748,21.052 5.304,20.404 4.56,20.056 C5.112,19.708 5.424,18.976 5.424,18.148 C5.424,16.42 4.02,16 2.568,16 L0,16 L0,24.7 Z M1.14,20.716 L2.844,20.716 C4.02,20.716 4.572,21.112 4.572,22.132 C4.572,23.116 4.02,23.62 2.928,23.62 L1.14,23.62 L1.14,20.716 Z M1.14,17.08 L2.808,17.08 C3.684,17.08 4.284,17.428 4.284,18.316 C4.284,19.336 3.708,19.696 2.808,19.696 L1.14,19.696 L1.14,17.08 Z" id="Shape"></path>
            <path d="M8.748,26.8 C10.116,26.8 10.476,26.248 10.932,24.976 L13.32,18.244 L12.18,18.244 L10.464,23.224 L8.712,18.244 L7.5,18.244 L9.912,24.7 L9.864,24.844 C9.528,25.768 9.312,25.852 8.64,25.852 L7.476,25.852 L7.476,26.8 L8.748,26.8 Z" id="Path"></path>
            <path d="M16.668,18.244 L14.832,18.244 L14.832,19.192 L16.668,19.192 L16.668,23.08 C16.668,24.424 17.004,24.7 18.18,24.7 L20.412,24.7 L20.412,23.752 L18.42,23.752 C17.808,23.752 17.772,23.584 17.772,22.924 L17.772,19.192 L20.412,19.192 L20.412,18.244 L17.772,18.244 L17.772,16.624 L16.668,16.624 L16.668,18.244 Z" id="Path"></path>
            <path d="M25.968,24.856 C27.48,24.856 28.488,23.992 28.752,22.768 L27.612,22.768 C27.384,23.5 26.904,23.956 25.944,23.956 C24.924,23.956 24.204,23.104 24.204,21.808 L28.848,21.808 C28.932,19.504 27.852,18.124 25.968,18.124 C24.264,18.124 23.04,19.42 23.04,21.496 C23.04,23.404 24.012,24.856 25.968,24.856 Z M25.968,19.036 C27.096,19.036 27.684,19.84 27.672,20.896 L24.216,20.896 C24.264,19.648 24.924,19.036 25.968,19.036 Z" id="Shape"></path>
        </g>
        <g id="6-Bytes" transform="translate(177.975400, 135.357468)" fill="#10162F" fill-rule="nonzero">
            <path d="M16.416,6.072 C16.416,4.908 17.148,4.056 18.228,4.056 C19.284,4.056 20.028,4.908 20.028,6.072 C20.028,7.248 19.272,8.064 18.216,8.064 C17.124,8.064 16.416,7.26 16.416,6.072 Z M18.384,0.936 C19.176,0.936 19.74,1.38 19.872,2.148 L21.06,2.148 C20.892,1.068 20.064,0 18.444,0 C16.056,0 15.156,2.4 15.156,4.848 C15.156,7.488 16.164,9.012 18.228,9.012 C20.004,9.012 21.204,7.62 21.204,6.024 C21.204,4.296 20.016,3.072 18.48,3.072 C17.376,3.072 16.668,3.588 16.296,4.26 C16.344,2.28 17.052,0.936 18.384,0.936 Z" id="Shape"></path>
            <path d="M0,24.856 L2.832,24.856 C4.392,24.856 5.748,24.124 5.748,22.276 C5.748,21.208 5.304,20.56 4.56,20.212 C5.112,19.864 5.424,19.132 5.424,18.304 C5.424,16.576 4.02,16.156 2.568,16.156 L0,16.156 L0,24.856 Z M1.14,20.872 L2.844,20.872 C4.02,20.872 4.572,21.268 4.572,22.288 C4.572,23.272 4.02,23.776 2.928,23.776 L1.14,23.776 L1.14,20.872 Z M1.14,17.236 L2.808,17.236 C3.684,17.236 4.284,17.584 4.284,18.472 C4.284,19.492 3.708,19.852 2.808,19.852 L1.14,19.852 L1.14,17.236 Z" id="Shape"></path>
            <path d="M8.748,26.956 C10.116,26.956 10.476,26.404 10.932,25.132 L13.32,18.4 L12.18,18.4 L10.464,23.38 L8.712,18.4 L7.5,18.4 L9.912,24.856 L9.864,25 C9.528,25.924 9.312,26.008 8.64,26.008 L7.476,26.008 L7.476,26.956 L8.748,26.956 Z" id="Path"></path>
            <path d="M16.668,18.4 L14.832,18.4 L14.832,19.348 L16.668,19.348 L16.668,23.236 C16.668,24.58 17.004,24.856 18.18,24.856 L20.412,24.856 L20.412,23.908 L18.42,23.908 C17.808,23.908 17.772,23.74 17.772,23.08 L17.772,19.348 L20.412,19.348 L20.412,18.4 L17.772,18.4 L17.772,16.78 L16.668,16.78 L16.668,18.4 Z" id="Path"></path>
            <path d="M25.968,25.012 C27.48,25.012 28.488,24.148 28.752,22.924 L27.612,22.924 C27.384,23.656 26.904,24.112 25.944,24.112 C24.924,24.112 24.204,23.26 24.204,21.964 L28.848,21.964 C28.932,19.66 27.852,18.28 25.968,18.28 C24.264,18.28 23.04,19.576 23.04,21.652 C23.04,23.56 24.012,25.012 25.968,25.012 Z M25.968,19.192 C27.096,19.192 27.684,19.996 27.672,21.052 L24.216,21.052 C24.264,19.804 24.924,19.192 25.968,19.192 Z" id="Shape"></path>
            <path d="M36.168,20.164 C35.928,19.012 34.992,18.292 33.624,18.292 C32.544,18.292 31.188,18.832 31.188,20.08 C31.188,21.196 31.992,21.7 33.012,21.904 L33.816,22.06 C34.632,22.204 35.172,22.504 35.172,23.104 C35.172,23.86 34.416,24.1 33.732,24.1 C32.832,24.1 32.376,23.668 32.232,22.924 L31.068,22.924 C31.188,23.956 32.028,25.012 33.708,25.012 C35.112,25.012 36.288,24.34 36.288,22.972 C36.288,21.676 35.088,21.256 33.972,21.04 L33.252,20.896 C32.616,20.764 32.28,20.536 32.28,20.032 C32.28,19.456 32.928,19.204 33.576,19.204 C34.308,19.204 34.872,19.444 35.016,20.164 L36.168,20.164 Z" id="Path"></path>
        </g>
        <g id="6-Bytes" transform="translate(277.975400, 135.357468)" fill="#10162F" fill-rule="nonzero">
            <path d="M16.416,6.072 C16.416,4.908 17.148,4.056 18.228,4.056 C19.284,4.056 20.028,4.908 20.028,6.072 C20.028,7.248 19.272,8.064 18.216,8.064 C17.124,8.064 16.416,7.26 16.416,6.072 Z M18.384,0.936 C19.176,0.936 19.74,1.38 19.872,2.148 L21.06,2.148 C20.892,1.068 20.064,0 18.444,0 C16.056,0 15.156,2.4 15.156,4.848 C15.156,7.488 16.164,9.012 18.228,9.012 C20.004,9.012 21.204,7.62 21.204,6.024 C21.204,4.296 20.016,3.072 18.48,3.072 C17.376,3.072 16.668,3.588 16.296,4.26 C16.344,2.28 17.052,0.936 18.384,0.936 Z" id="Shape"></path>
            <path d="M0,24.856 L2.832,24.856 C4.392,24.856 5.748,24.124 5.748,22.276 C5.748,21.208 5.304,20.56 4.56,20.212 C5.112,19.864 5.424,19.132 5.424,18.304 C5.424,16.576 4.02,16.156 2.568,16.156 L0,16.156 L0,24.856 Z M1.14,20.872 L2.844,20.872 C4.02,20.872 4.572,21.268 4.572,22.288 C4.572,23.272 4.02,23.776 2.928,23.776 L1.14,23.776 L1.14,20.872 Z M1.14,17.236 L2.808,17.236 C3.684,17.236 4.284,17.584 4.284,18.472 C4.284,19.492 3.708,19.852 2.808,19.852 L1.14,19.852 L1.14,17.236 Z" id="Shape"></path>
            <path d="M8.748,26.956 C10.116,26.956 10.476,26.404 10.932,25.132 L13.32,18.4 L12.18,18.4 L10.464,23.38 L8.712,18.4 L7.5,18.4 L9.912,24.856 L9.864,25 C9.528,25.924 9.312,26.008 8.64,26.008 L7.476,26.008 L7.476,26.956 L8.748,26.956 Z" id="Path"></path>
            <path d="M16.668,18.4 L14.832,18.4 L14.832,19.348 L16.668,19.348 L16.668,23.236 C16.668,24.58 17.004,24.856 18.18,24.856 L20.412,24.856 L20.412,23.908 L18.42,23.908 C17.808,23.908 17.772,23.74 17.772,23.08 L17.772,19.348 L20.412,19.348 L20.412,18.4 L17.772,18.4 L17.772,16.78 L16.668,16.78 L16.668,18.4 Z" id="Path"></path>
            <path d="M25.968,25.012 C27.48,25.012 28.488,24.148 28.752,22.924 L27.612,22.924 C27.384,23.656 26.904,24.112 25.944,24.112 C24.924,24.112 24.204,23.26 24.204,21.964 L28.848,21.964 C28.932,19.66 27.852,18.28 25.968,18.28 C24.264,18.28 23.04,19.576 23.04,21.652 C23.04,23.56 24.012,25.012 25.968,25.012 Z M25.968,19.192 C27.096,19.192 27.684,19.996 27.672,21.052 L24.216,21.052 C24.264,19.804 24.924,19.192 25.968,19.192 Z" id="Shape"></path>
            <path d="M36.168,20.164 C35.928,19.012 34.992,18.292 33.624,18.292 C32.544,18.292 31.188,18.832 31.188,20.08 C31.188,21.196 31.992,21.7 33.012,21.904 L33.816,22.06 C34.632,22.204 35.172,22.504 35.172,23.104 C35.172,23.86 34.416,24.1 33.732,24.1 C32.832,24.1 32.376,23.668 32.232,22.924 L31.068,22.924 C31.188,23.956 32.028,25.012 33.708,25.012 C35.112,25.012 36.288,24.34 36.288,22.972 C36.288,21.676 35.088,21.256 33.972,21.04 L33.252,20.896 C32.616,20.764 32.28,20.536 32.28,20.032 C32.28,19.456 32.928,19.204 33.576,19.204 C34.308,19.204 34.872,19.444 35.016,20.164 L36.168,20.164 Z" id="Path"></path>
        </g>
        <g id="2-Bytes" transform="translate(354.475400, 135.357468)" fill="#10162F" fill-rule="nonzero">
            <path d="M18.312,0 C16.548,0 15.396,1.26 15.42,2.916 L16.548,2.916 C16.572,1.488 17.4,0.936 18.3,0.936 C19.284,0.936 19.8,1.584 19.8,2.484 C19.8,4.008 18.18,5.64 15.264,7.908 L15.264,8.856 L21.132,8.856 L21.132,7.908 L16.812,7.908 C19.032,6.132 20.976,4.356 20.976,2.34 C20.976,0.864 19.836,0 18.312,0 Z" id="Path"></path>
            <path d="M0,24.856 L2.832,24.856 C4.392,24.856 5.748,24.124 5.748,22.276 C5.748,21.208 5.304,20.56 4.56,20.212 C5.112,19.864 5.424,19.132 5.424,18.304 C5.424,16.576 4.02,16.156 2.568,16.156 L0,16.156 L0,24.856 Z M1.14,20.872 L2.844,20.872 C4.02,20.872 4.572,21.268 4.572,22.288 C4.572,23.272 4.02,23.776 2.928,23.776 L1.14,23.776 L1.14,20.872 Z M1.14,17.236 L2.808,17.236 C3.684,17.236 4.284,17.584 4.284,18.472 C4.284,19.492 3.708,19.852 2.808,19.852 L1.14,19.852 L1.14,17.236 Z" id="Shape"></path>
            <path d="M8.748,26.956 C10.116,26.956 10.476,26.404 10.932,25.132 L13.32,18.4 L12.18,18.4 L10.464,23.38 L8.712,18.4 L7.5,18.4 L9.912,24.856 L9.864,25 C9.528,25.924 9.312,26.008 8.64,26.008 L7.476,26.008 L7.476,26.956 L8.748,26.956 Z" id="Path"></path>
            <path d="M16.668,18.4 L14.832,18.4 L14.832,19.348 L16.668,19.348 L16.668,23.236 C16.668,24.58 17.004,24.856 18.18,24.856 L20.412,24.856 L20.412,23.908 L18.42,23.908 C17.808,23.908 17.772,23.74 17.772,23.08 L17.772,19.348 L20.412,19.348 L20.412,18.4 L17.772,18.4 L17.772,16.78 L16.668,16.78 L16.668,18.4 Z" id="Path"></path>
            <path d="M25.968,25.012 C27.48,25.012 28.488,24.148 28.752,22.924 L27.612,22.924 C27.384,23.656 26.904,24.112 25.944,24.112 C24.924,24.112 24.204,23.26 24.204,21.964 L28.848,21.964 C28.932,19.66 27.852,18.28 25.968,18.28 C24.264,18.28 23.04,19.576 23.04,21.652 C23.04,23.56 24.012,25.012 25.968,25.012 Z M25.968,19.192 C27.096,19.192 27.684,19.996 27.672,21.052 L24.216,21.052 C24.264,19.804 24.924,19.192 25.968,19.192 Z" id="Shape"></path>
            <path d="M36.168,20.164 C35.928,19.012 34.992,18.292 33.624,18.292 C32.544,18.292 31.188,18.832 31.188,20.08 C31.188,21.196 31.992,21.7 33.012,21.904 L33.816,22.06 C34.632,22.204 35.172,22.504 35.172,23.104 C35.172,23.86 34.416,24.1 33.732,24.1 C32.832,24.1 32.376,23.668 32.232,22.924 L31.068,22.924 C31.188,23.956 32.028,25.012 33.708,25.012 C35.112,25.012 36.288,24.34 36.288,22.972 C36.288,21.676 35.088,21.256 33.972,21.04 L33.252,20.896 C32.616,20.764 32.28,20.536 32.28,20.032 C32.28,19.456 32.928,19.204 33.576,19.204 C34.308,19.204 34.872,19.444 35.016,20.164 L36.168,20.164 Z" id="Path"></path>
        </g>
        <g id="4-Bytes" transform="translate(571.475400, 135.513468)" fill="#10162F" fill-rule="nonzero">
            <path d="M18.924,1.488 L18.924,5.52 L15.972,5.52 L18.924,1.488 Z M21.48,5.52 L20.028,5.52 L20.028,0 L18.912,0 L14.82,5.52 L14.82,6.552 L18.924,6.552 L18.924,8.7 L20.028,8.7 L20.028,6.552 L21.48,6.552 L21.48,5.52 Z" id="Shape"></path>
            <path d="M0,24.7 L2.832,24.7 C4.392,24.7 5.748,23.968 5.748,22.12 C5.748,21.052 5.304,20.404 4.56,20.056 C5.112,19.708 5.424,18.976 5.424,18.148 C5.424,16.42 4.02,16 2.568,16 L0,16 L0,24.7 Z M1.14,20.716 L2.844,20.716 C4.02,20.716 4.572,21.112 4.572,22.132 C4.572,23.116 4.02,23.62 2.928,23.62 L1.14,23.62 L1.14,20.716 Z M1.14,17.08 L2.808,17.08 C3.684,17.08 4.284,17.428 4.284,18.316 C4.284,19.336 3.708,19.696 2.808,19.696 L1.14,19.696 L1.14,17.08 Z" id="Shape"></path>
            <path d="M8.748,26.8 C10.116,26.8 10.476,26.248 10.932,24.976 L13.32,18.244 L12.18,18.244 L10.464,23.224 L8.712,18.244 L7.5,18.244 L9.912,24.7 L9.864,24.844 C9.528,25.768 9.312,25.852 8.64,25.852 L7.476,25.852 L7.476,26.8 L8.748,26.8 Z" id="Path"></path>
            <path d="M16.668,18.244 L14.832,18.244 L14.832,19.192 L16.668,19.192 L16.668,23.08 C16.668,24.424 17.004,24.7 18.18,24.7 L20.412,24.7 L20.412,23.752 L18.42,23.752 C17.808,23.752 17.772,23.584 17.772,22.924 L17.772,19.192 L20.412,19.192 L20.412,18.244 L17.772,18.244 L17.772,16.624 L16.668,16.624 L16.668,18.244 Z" id="Path"></path>
            <path d="M25.968,24.856 C27.48,24.856 28.488,23.992 28.752,22.768 L27.612,22.768 C27.384,23.5 26.904,23.956 25.944,23.956 C24.924,23.956 24.204,23.104 24.204,21.808 L28.848,21.808 C28.932,19.504 27.852,18.124 25.968,18.124 C24.264,18.124 23.04,19.42 23.04,21.496 C23.04,23.404 24.012,24.856 25.968,24.856 Z M25.968,19.036 C27.096,19.036 27.684,19.84 27.672,20.896 L24.216,20.896 C24.264,19.648 24.924,19.036 25.968,19.036 Z" id="Shape"></path>
            <path d="M36.168,20.008 C35.928,18.856 34.992,18.136 33.624,18.136 C32.544,18.136 31.188,18.676 31.188,19.924 C31.188,21.04 31.992,21.544 33.012,21.748 L33.816,21.904 C34.632,22.048 35.172,22.348 35.172,22.948 C35.172,23.704 34.416,23.944 33.732,23.944 C32.832,23.944 32.376,23.512 32.232,22.768 L31.068,22.768 C31.188,23.8 32.028,24.856 33.708,24.856 C35.112,24.856 36.288,24.184 36.288,22.816 C36.288,21.52 35.088,21.1 33.972,20.884 L33.252,20.74 C32.616,20.608 32.28,20.38 32.28,19.876 C32.28,19.3 32.928,19.048 33.576,19.048 C34.308,19.048 34.872,19.288 35.016,20.008 L36.168,20.008 Z" id="Path"></path>
        </g>
        <g id="46---1500-Bytes" transform="translate(444.787400, 135.357468)" fill="#10162F" fill-rule="nonzero">
            <path d="M4.104,1.644 L4.104,5.676 L1.152,5.676 L4.104,1.644 Z M6.66,5.676 L5.208,5.676 L5.208,0.156 L4.092,0.156 L2.27373675e-13,5.676 L2.27373675e-13,6.708 L4.104,6.708 L4.104,8.856 L5.208,8.856 L5.208,6.708 L6.66,6.708 L6.66,5.676 Z" id="Shape"></path>
            <path d="M9.348,6.072 C9.348,4.908 10.08,4.056 11.16,4.056 C12.216,4.056 12.96,4.908 12.96,6.072 C12.96,7.248 12.204,8.064 11.148,8.064 C10.056,8.064 9.348,7.26 9.348,6.072 Z M11.316,0.936 C12.108,0.936 12.672,1.38 12.804,2.148 L13.992,2.148 C13.824,1.068 12.996,0 11.376,0 C8.988,0 8.088,2.4 8.088,4.848 C8.088,7.488 9.096,9.012 11.16,9.012 C12.936,9.012 14.136,7.62 14.136,6.024 C14.136,4.296 12.948,3.072 11.412,3.072 C10.308,3.072 9.6,3.588 9.228,4.26 C9.276,2.28 9.984,0.936 11.316,0.936 Z" id="Shape"></path>
            <polygon id="Path" points="28.524 6.084 28.524 5.052 24.708 5.052 24.708 6.084"></polygon>
            <path d="M42.168,0.156 C41.724,1.104 41.016,1.26 39.564,1.296 L39.564,2.052 L41.784,2.052 L41.784,7.908 L39.564,7.908 L39.564,8.856 L44.712,8.856 L44.712,7.908 L42.888,7.908 L42.888,0.156 L42.168,0.156 Z" id="Path"></path>
            <path d="M49.86,8.064 C48.696,8.064 48.096,7.32 47.976,6.264 L46.86,6.264 C46.968,7.68 47.916,9.012 49.848,9.012 C51.396,9.012 52.872,7.956 52.872,5.988 C52.872,4.104 51.528,3.048 50.088,3.048 C49.392,3.048 48.744,3.252 48.288,3.696 L48.6,1.092 L52.488,1.092 L52.488,0.156 L47.664,0.156 L47.1,4.872 L48.252,4.92 C48.432,4.5 49.008,4.008 49.836,4.008 C50.736,4.008 51.696,4.584 51.696,6 C51.696,7.32 50.856,8.064 49.86,8.064 Z" id="Path"></path>
            <path d="M57.612,9.012 C59.808,9.012 60.66,7.164 60.66,4.464 C60.66,1.764 59.808,0 57.612,0 C55.416,0 54.576,1.764 54.576,4.464 C54.576,7.164 55.416,9.012 57.612,9.012 Z M55.692,4.464 C55.692,2.088 56.304,0.936 57.612,0.936 C58.656,0.936 59.268,1.68 59.46,3.192 L55.704,4.908 C55.692,4.764 55.692,4.62 55.692,4.464 Z M57.612,8.064 C56.58,8.064 55.98,7.308 55.776,5.82 L59.532,4.08 C59.544,4.212 59.544,4.332 59.544,4.464 C59.544,6.84 58.92,8.064 57.612,8.064 Z" id="Shape"></path>
            <path d="M65.364,9.012 C67.56,9.012 68.412,7.164 68.412,4.464 C68.412,1.764 67.56,0 65.364,0 C63.168,0 62.328,1.764 62.328,4.464 C62.328,7.164 63.168,9.012 65.364,9.012 Z M63.444,4.464 C63.444,2.088 64.056,0.936 65.364,0.936 C66.408,0.936 67.02,1.68 67.212,3.192 L63.456,4.908 C63.444,4.764 63.444,4.62 63.444,4.464 Z M65.364,8.064 C64.332,8.064 63.732,7.308 63.528,5.82 L67.284,4.08 C67.296,4.212 67.296,4.332 67.296,4.464 C67.296,6.84 66.672,8.064 65.364,8.064 Z" id="Shape"></path>
            <path d="M16.188,24.856 L19.02,24.856 C20.58,24.856 21.936,24.124 21.936,22.276 C21.936,21.208 21.492,20.56 20.748,20.212 C21.3,19.864 21.612,19.132 21.612,18.304 C21.612,16.576 20.208,16.156 18.756,16.156 L16.188,16.156 L16.188,24.856 Z M17.328,20.872 L19.032,20.872 C20.208,20.872 20.76,21.268 20.76,22.288 C20.76,23.272 20.208,23.776 19.116,23.776 L17.328,23.776 L17.328,20.872 Z M17.328,17.236 L18.996,17.236 C19.872,17.236 20.472,17.584 20.472,18.472 C20.472,19.492 19.896,19.852 18.996,19.852 L17.328,19.852 L17.328,17.236 Z" id="Shape"></path>
            <path d="M24.936,26.956 C26.304,26.956 26.664,26.404 27.12,25.132 L29.508,18.4 L28.368,18.4 L26.652,23.38 L24.9,18.4 L23.688,18.4 L26.1,24.856 L26.052,25 C25.716,25.924 25.5,26.008 24.828,26.008 L23.664,26.008 L23.664,26.956 L24.936,26.956 Z" id="Path"></path>
            <path d="M32.856,18.4 L31.02,18.4 L31.02,19.348 L32.856,19.348 L32.856,23.236 C32.856,24.58 33.192,24.856 34.368,24.856 L36.6,24.856 L36.6,23.908 L34.608,23.908 C33.996,23.908 33.96,23.74 33.96,23.08 L33.96,19.348 L36.6,19.348 L36.6,18.4 L33.96,18.4 L33.96,16.78 L32.856,16.78 L32.856,18.4 Z" id="Path"></path>
            <path d="M42.156,25.012 C43.668,25.012 44.676,24.148 44.94,22.924 L43.8,22.924 C43.572,23.656 43.092,24.112 42.132,24.112 C41.112,24.112 40.392,23.26 40.392,21.964 L45.036,21.964 C45.12,19.66 44.04,18.28 42.156,18.28 C40.452,18.28 39.228,19.576 39.228,21.652 C39.228,23.56 40.2,25.012 42.156,25.012 Z M42.156,19.192 C43.284,19.192 43.872,19.996 43.86,21.052 L40.404,21.052 C40.452,19.804 41.112,19.192 42.156,19.192 Z" id="Shape"></path>
            <path d="M52.356,20.164 C52.116,19.012 51.18,18.292 49.812,18.292 C48.732,18.292 47.376,18.832 47.376,20.08 C47.376,21.196 48.18,21.7 49.2,21.904 L50.004,22.06 C50.82,22.204 51.36,22.504 51.36,23.104 C51.36,23.86 50.604,24.1 49.92,24.1 C49.02,24.1 48.564,23.668 48.42,22.924 L47.256,22.924 C47.376,23.956 48.216,25.012 49.896,25.012 C51.3,25.012 52.476,24.34 52.476,22.972 C52.476,21.676 51.276,21.256 50.16,21.04 L49.44,20.896 C48.804,20.764 48.468,20.536 48.468,20.032 C48.468,19.456 49.116,19.204 49.764,19.204 C50.496,19.204 51.06,19.444 51.204,20.164 L52.356,20.164 Z" id="Path"></path>
        </g>
        <g id="PREAMBLE" transform="translate(44.120000, 89.300000)" fill="#10162F" fill-rule="nonzero">
            <path d="M0,0 L0,8.7 L1.8,8.7 L1.8,5.316 L2.688,5.316 C4.68,5.316 6.06,4.704 6.06,2.676 C6.06,0.648 4.68,0 2.688,0 L0,0 Z M2.64,1.464 C3.468,1.464 4.14,1.764 4.14,2.676 C4.14,3.6 3.468,3.876 2.64,3.876 L1.8,3.876 L1.8,1.464 L2.64,1.464 Z" id="Shape"></path>
            <path d="M11.784,8.7 L13.764,8.7 L11.82,4.788 C12.732,4.452 13.38,3.828 13.38,2.58 C13.38,0.42 11.88,0 9.9,0 L7.584,0 L7.584,8.7 L9.384,8.7 L9.384,5.172 L9.9,5.172 L10.068,5.172 L11.784,8.7 Z M9.96,1.464 C10.812,1.464 11.472,1.68 11.472,2.616 C11.472,3.552 10.812,3.756 9.96,3.756 L9.384,3.756 L9.384,1.464 L9.96,1.464 Z" id="Shape"></path>
            <polygon id="Path" points="15.66 8.7 20.928 8.7 20.928 7.152 17.46 7.152 17.46 5.028 20.688 5.028 20.688 3.48 17.46 3.48 17.46 1.548 20.928 1.548 20.928 0 15.66 0"></polygon>
            <path d="M22.644,8.7 L24.564,8.7 L24.96,6.888 L27,6.888 L27.396,8.7 L29.364,8.7 L27.12,0 L24.876,0 L22.644,8.7 Z M25.992,2.292 L26.688,5.484 L25.272,5.484 L25.992,2.292 Z" id="Shape"></path>
            <polygon id="Path" points="33.756 3.684 33.168 0 30.576 0 30.576 8.7 32.34 8.7 32.34 4.74 32.304 1.476 32.388 1.476 33.12 5.904 34.392 5.904 35.136 1.476 35.208 1.476 35.172 4.74 35.172 8.7 36.936 8.7 36.936 0 34.344 0"></polygon>
            <path d="M38.748,8.7 L41.592,8.7 C43.44,8.7 44.7,7.944 44.7,6 C44.7,4.944 44.172,4.344 43.464,4.032 C44.04,3.636 44.4,2.988 44.4,2.244 C44.4,0.432 43.128,0 41.448,0 L38.748,0 L38.748,8.7 Z M40.548,3.576 L40.548,1.464 L41.424,1.464 C42.156,1.464 42.516,1.824 42.516,2.52 C42.516,3.216 42.156,3.576 41.424,3.576 L40.548,3.576 Z M42.792,6.06 C42.792,6.828 42.408,7.212 41.52,7.212 L40.548,7.212 L40.548,4.896 L41.52,4.896 C42.408,4.896 42.792,5.28 42.792,6.06 Z" id="Shape"></path>
            <polygon id="Path" points="48.444 0 46.644 0 46.644 8.7 52.5 8.7 52.5 7.152 48.444 7.152"></polygon>
            <polygon id="Path" points="54.42 8.7 59.688 8.7 59.688 7.152 56.22 7.152 56.22 5.028 59.448 5.028 59.448 3.48 56.22 3.48 56.22 1.548 59.688 1.548 59.688 0 54.42 0"></polygon>
        </g>
        <g id="DESTINATION-ADDRESS" transform="translate(154.788000, 81.144000)" fill="#10162F" fill-rule="nonzero">
            <path d="M4.332,4.5 C4.332,6.792 3.42,7.38 1.956,7.38 L1.8,7.38 L1.8,1.62 L1.956,1.62 C3.42,1.62 4.332,2.196 4.332,4.5 Z M0,0.156 L0,8.856 L1.992,8.856 C4.368,8.856 6.24,7.812 6.24,4.5 C6.24,1.176 4.404,0.156 2.04,0.156 L0,0.156 Z" id="Shape"></path>
            <polygon id="Path" points="8.112 8.856 13.38 8.856 13.38 7.308 9.912 7.308 9.912 5.184 13.14 5.184 13.14 3.636 9.912 3.636 9.912 1.704 13.38 1.704 13.38 0.156 8.112 0.156"></polygon>
            <path d="M15.444,2.52 C15.444,3.948 16.524,4.776 17.688,5.076 L18.576,5.316 C19.428,5.532 19.848,5.952 19.848,6.6 C19.848,7.248 19.332,7.632 18.648,7.632 C17.712,7.632 17.172,6.96 17.04,5.976 L15.3,5.976 C15.492,7.836 16.752,9.012 18.696,9.012 C20.148,9.012 21.66,8.208 21.66,6.312 C21.66,4.548 20.244,3.984 19.092,3.696 L18.336,3.504 C17.556,3.312 17.244,2.904 17.244,2.352 C17.244,1.764 17.712,1.38 18.372,1.38 C19.152,1.38 19.644,1.896 19.752,2.748 L21.48,2.748 C21.288,0.816 19.932,0 18.468,0 C16.992,0 15.444,0.792 15.444,2.52 Z" id="Path"></path>
            <polygon id="Path" points="25.308 8.856 27.108 8.856 27.108 1.704 29.568 1.704 29.568 0.156 22.848 0.156 22.848 1.704 25.308 1.704"></polygon>
            <polygon id="Path" points="30.996 1.704 33.06 1.704 33.06 7.308 30.996 7.308 30.996 8.856 36.924 8.856 36.924 7.308 34.86 7.308 34.86 1.704 36.924 1.704 36.924 0.156 30.996 0.156"></polygon>
            <polygon id="Path" points="44.7 8.856 44.7 0.156 42.9 0.156 42.9 6.156 40.98 0.156 38.724 0.156 38.724 8.856 40.524 8.856 40.524 2.844 42.432 8.856"></polygon>
            <path d="M46.104,8.856 L48.024,8.856 L48.42,7.044 L50.46,7.044 L50.856,8.856 L52.824,8.856 L50.58,0.156 L48.336,0.156 L46.104,8.856 Z M49.452,2.448 L50.148,5.64 L48.732,5.64 L49.452,2.448 Z" id="Shape"></path>
            <polygon id="Path" points="56.316 8.856 58.116 8.856 58.116 1.704 60.576 1.704 60.576 0.156 53.856 0.156 53.856 1.704 56.316 1.704"></polygon>
            <polygon id="Path" points="62.004 1.704 64.068 1.704 64.068 7.308 62.004 7.308 62.004 8.856 67.932 8.856 67.932 7.308 65.868 7.308 65.868 1.704 67.932 1.704 67.932 0.156 62.004 0.156"></polygon>
            <path d="M71.22,4.5 C71.22,2.664 71.616,1.416 72.72,1.416 C73.836,1.416 74.22,2.664 74.22,4.5 C74.22,6.336 73.836,7.596 72.72,7.596 C71.616,7.596 71.22,6.336 71.22,4.5 Z M69.312,4.5 C69.312,7.2 70.368,9.012 72.72,9.012 C75.072,9.012 76.128,7.2 76.128,4.5 C76.128,1.8 75.072,0 72.72,0 C70.368,0 69.312,1.8 69.312,4.5 Z" id="Shape"></path>
            <polygon id="Path" points="83.46 8.856 83.46 0.156 81.66 0.156 81.66 6.156 79.74 0.156 77.484 0.156 77.484 8.856 79.284 8.856 79.284 2.844 81.192 8.856"></polygon>
            <path d="M15.096,24.856 L17.016,24.856 L17.412,23.044 L19.452,23.044 L19.848,24.856 L21.816,24.856 L19.572,16.156 L17.328,16.156 L15.096,24.856 Z M18.444,18.448 L19.14,21.64 L17.724,21.64 L18.444,18.448 Z" id="Shape"></path>
            <path d="M27.588,20.5 C27.588,22.792 26.676,23.38 25.212,23.38 L25.056,23.38 L25.056,17.62 L25.212,17.62 C26.676,17.62 27.588,18.196 27.588,20.5 Z M23.256,16.156 L23.256,24.856 L25.248,24.856 C27.624,24.856 29.496,23.812 29.496,20.5 C29.496,17.176 27.66,16.156 25.296,16.156 L23.256,16.156 Z" id="Shape"></path>
            <path d="M35.34,20.5 C35.34,22.792 34.428,23.38 32.964,23.38 L32.808,23.38 L32.808,17.62 L32.964,17.62 C34.428,17.62 35.34,18.196 35.34,20.5 Z M31.008,16.156 L31.008,24.856 L33,24.856 C35.376,24.856 37.248,23.812 37.248,20.5 C37.248,17.176 35.412,16.156 33.048,16.156 L31.008,16.156 Z" id="Shape"></path>
            <path d="M42.996,24.856 L44.976,24.856 L43.032,20.944 C43.944,20.608 44.592,19.984 44.592,18.736 C44.592,16.576 43.092,16.156 41.112,16.156 L38.796,16.156 L38.796,24.856 L40.596,24.856 L40.596,21.328 L41.112,21.328 L41.28,21.328 L42.996,24.856 Z M41.172,17.62 C42.024,17.62 42.684,17.836 42.684,18.772 C42.684,19.708 42.024,19.912 41.172,19.912 L40.596,19.912 L40.596,17.62 L41.172,17.62 Z" id="Shape"></path>
            <polygon id="Path" points="46.872 24.856 52.14 24.856 52.14 23.308 48.672 23.308 48.672 21.184 51.9 21.184 51.9 19.636 48.672 19.636 48.672 17.704 52.14 17.704 52.14 16.156 46.872 16.156"></polygon>
            <path d="M54.204,18.52 C54.204,19.948 55.284,20.776 56.448,21.076 L57.336,21.316 C58.188,21.532 58.608,21.952 58.608,22.6 C58.608,23.248 58.092,23.632 57.408,23.632 C56.472,23.632 55.932,22.96 55.8,21.976 L54.06,21.976 C54.252,23.836 55.512,25.012 57.456,25.012 C58.908,25.012 60.42,24.208 60.42,22.312 C60.42,20.548 59.004,19.984 57.852,19.696 L57.096,19.504 C56.316,19.312 56.004,18.904 56.004,18.352 C56.004,17.764 56.472,17.38 57.132,17.38 C57.912,17.38 58.404,17.896 58.512,18.748 L60.24,18.748 C60.048,16.816 58.692,16 57.228,16 C55.752,16 54.204,16.792 54.204,18.52 Z" id="Path"></path>
            <path d="M61.956,18.52 C61.956,19.948 63.036,20.776 64.2,21.076 L65.088,21.316 C65.94,21.532 66.36,21.952 66.36,22.6 C66.36,23.248 65.844,23.632 65.16,23.632 C64.224,23.632 63.684,22.96 63.552,21.976 L61.812,21.976 C62.004,23.836 63.264,25.012 65.208,25.012 C66.66,25.012 68.172,24.208 68.172,22.312 C68.172,20.548 66.756,19.984 65.604,19.696 L64.848,19.504 C64.068,19.312 63.756,18.904 63.756,18.352 C63.756,17.764 64.224,17.38 64.884,17.38 C65.664,17.38 66.156,17.896 66.264,18.748 L67.992,18.748 C67.8,16.816 66.444,16 64.98,16 C63.504,16 61.956,16.792 61.956,18.52 Z" id="Path"></path>
        </g>
        <g id="S-F-D" transform="translate(133.844000, 73.144000)" fill="#10162F" fill-rule="nonzero">
            <path d="M0.144,2.52 C0.144,3.948 1.224,4.776 2.388,5.076 L3.276,5.316 C4.128,5.532 4.548,5.952 4.548,6.6 C4.548,7.248 4.032,7.632 3.348,7.632 C2.412,7.632 1.872,6.96 1.74,5.976 L0,5.976 C0.192,7.836 1.452,9.012 3.396,9.012 C4.848,9.012 6.36,8.208 6.36,6.312 C6.36,4.548 4.944,3.984 3.792,3.696 L3.036,3.504 C2.256,3.312 1.944,2.904 1.944,2.352 C1.944,1.764 2.412,1.38 3.072,1.38 C3.852,1.38 4.344,1.896 4.452,2.748 L6.18,2.748 C5.988,0.816 4.632,0 3.168,0 C1.692,0 0.144,0.792 0.144,2.52 Z" id="Path"></path>
            <polygon id="Path" points="0.648 24.856 2.448 24.856 2.448 21.184 5.784 21.184 5.784 19.636 2.448 19.636 2.448 17.704 6 17.704 6 16.156 0.648 16.156"></polygon>
            <path d="M4.536,36.5 C4.536,38.792 3.624,39.38 2.16,39.38 L2.004,39.38 L2.004,33.62 L2.16,33.62 C3.624,33.62 4.536,34.196 4.536,36.5 Z M0.204,32.156 L0.204,40.856 L2.196,40.856 C4.572,40.856 6.444,39.812 6.444,36.5 C6.444,33.176 4.608,32.156 2.244,32.156 L0.204,32.156 Z" id="Shape"></path>
        </g>
        <g id="SOURCE-ADDRESS" transform="translate(269.884000, 81.144000)" fill="#10162F" fill-rule="nonzero">
            <path d="M4.224,2.52 C4.224,3.948 5.304,4.776 6.468,5.076 L7.356,5.316 C8.208,5.532 8.628,5.952 8.628,6.6 C8.628,7.248 8.112,7.632 7.428,7.632 C6.492,7.632 5.952,6.96 5.82,5.976 L4.08,5.976 C4.272,7.836 5.532,9.012 7.476,9.012 C8.928,9.012 10.44,8.208 10.44,6.312 C10.44,4.548 9.024,3.984 7.872,3.696 L7.116,3.504 C6.336,3.312 6.024,2.904 6.024,2.352 C6.024,1.764 6.492,1.38 7.152,1.38 C7.932,1.38 8.424,1.896 8.532,2.748 L10.26,2.748 C10.068,0.816 8.712,0 7.248,0 C5.772,0 4.224,0.792 4.224,2.52 Z" id="Path"></path>
            <path d="M13.488,4.5 C13.488,2.664 13.884,1.416 14.988,1.416 C16.104,1.416 16.488,2.664 16.488,4.5 C16.488,6.336 16.104,7.596 14.988,7.596 C13.884,7.596 13.488,6.336 13.488,4.5 Z M11.58,4.5 C11.58,7.2 12.636,9.012 14.988,9.012 C17.34,9.012 18.396,7.2 18.396,4.5 C18.396,1.8 17.34,0 14.988,0 C12.636,0 11.58,1.8 11.58,4.5 Z" id="Shape"></path>
            <path d="M19.692,0.156 L19.692,5.136 C19.692,8.004 20.46,9.012 22.764,9.012 C25.152,9.012 25.788,7.74 25.788,5.064 L25.788,0.156 L23.988,0.156 L23.988,5.436 C23.988,6.72 23.748,7.536 22.764,7.536 C21.756,7.536 21.492,6.828 21.492,5.568 L21.492,0.156 L19.692,0.156 Z" id="Path"></path>
            <path d="M31.776,8.856 L33.756,8.856 L31.812,4.944 C32.724,4.608 33.372,3.984 33.372,2.736 C33.372,0.576 31.872,0.156 29.892,0.156 L27.576,0.156 L27.576,8.856 L29.376,8.856 L29.376,5.328 L29.892,5.328 L30.06,5.328 L31.776,8.856 Z M29.952,1.62 C30.804,1.62 31.464,1.836 31.464,2.772 C31.464,3.708 30.804,3.912 29.952,3.912 L29.376,3.912 L29.376,1.62 L29.952,1.62 Z" id="Shape"></path>
            <path d="M39.696,5.832 C39.612,7.128 39.108,7.596 38.328,7.596 C37.344,7.596 36.888,6.72 36.888,4.5 C36.888,2.328 37.368,1.416 38.328,1.416 C39.192,1.416 39.552,1.98 39.648,3.168 L41.412,3.168 C41.244,1.26 40.32,0 38.4,0 C36.132,0 34.98,1.692 34.98,4.5 C34.98,7.32 36.072,9.012 38.34,9.012 C40.284,9.012 41.268,7.86 41.484,5.832 L39.696,5.832 Z" id="Path"></path>
            <polygon id="Path" points="43.404 8.856 48.672 8.856 48.672 7.308 45.204 7.308 45.204 5.184 48.432 5.184 48.432 3.636 45.204 3.636 45.204 1.704 48.672 1.704 48.672 0.156 43.404 0.156"></polygon>
            <path d="M0,24.856 L1.92,24.856 L2.316,23.044 L4.356,23.044 L4.752,24.856 L6.72,24.856 L4.476,16.156 L2.232,16.156 L0,24.856 Z M3.348,18.448 L4.044,21.64 L2.628,21.64 L3.348,18.448 Z" id="Shape"></path>
            <path d="M12.492,20.5 C12.492,22.792 11.58,23.38 10.116,23.38 L9.96,23.38 L9.96,17.62 L10.116,17.62 C11.58,17.62 12.492,18.196 12.492,20.5 Z M8.16,16.156 L8.16,24.856 L10.152,24.856 C12.528,24.856 14.4,23.812 14.4,20.5 C14.4,17.176 12.564,16.156 10.2,16.156 L8.16,16.156 Z" id="Shape"></path>
            <path d="M20.244,20.5 C20.244,22.792 19.332,23.38 17.868,23.38 L17.712,23.38 L17.712,17.62 L17.868,17.62 C19.332,17.62 20.244,18.196 20.244,20.5 Z M15.912,16.156 L15.912,24.856 L17.904,24.856 C20.28,24.856 22.152,23.812 22.152,20.5 C22.152,17.176 20.316,16.156 17.952,16.156 L15.912,16.156 Z" id="Shape"></path>
            <path d="M27.9,24.856 L29.88,24.856 L27.936,20.944 C28.848,20.608 29.496,19.984 29.496,18.736 C29.496,16.576 27.996,16.156 26.016,16.156 L23.7,16.156 L23.7,24.856 L25.5,24.856 L25.5,21.328 L26.016,21.328 L26.184,21.328 L27.9,24.856 Z M26.076,17.62 C26.928,17.62 27.588,17.836 27.588,18.772 C27.588,19.708 26.928,19.912 26.076,19.912 L25.5,19.912 L25.5,17.62 L26.076,17.62 Z" id="Shape"></path>
            <polygon id="Path" points="31.776 24.856 37.044 24.856 37.044 23.308 33.576 23.308 33.576 21.184 36.804 21.184 36.804 19.636 33.576 19.636 33.576 17.704 37.044 17.704 37.044 16.156 31.776 16.156"></polygon>
            <path d="M39.108,18.52 C39.108,19.948 40.188,20.776 41.352,21.076 L42.24,21.316 C43.092,21.532 43.512,21.952 43.512,22.6 C43.512,23.248 42.996,23.632 42.312,23.632 C41.376,23.632 40.836,22.96 40.704,21.976 L38.964,21.976 C39.156,23.836 40.416,25.012 42.36,25.012 C43.812,25.012 45.324,24.208 45.324,22.312 C45.324,20.548 43.908,19.984 42.756,19.696 L42,19.504 C41.22,19.312 40.908,18.904 40.908,18.352 C40.908,17.764 41.376,17.38 42.036,17.38 C42.816,17.38 43.308,17.896 43.416,18.748 L45.144,18.748 C44.952,16.816 43.596,16 42.132,16 C40.656,16 39.108,16.792 39.108,18.52 Z" id="Path"></path>
            <path d="M46.86,18.52 C46.86,19.948 47.94,20.776 49.104,21.076 L49.992,21.316 C50.844,21.532 51.264,21.952 51.264,22.6 C51.264,23.248 50.748,23.632 50.064,23.632 C49.128,23.632 48.588,22.96 48.456,21.976 L46.716,21.976 C46.908,23.836 48.168,25.012 50.112,25.012 C51.564,25.012 53.076,24.208 53.076,22.312 C53.076,20.548 51.66,19.984 50.508,19.696 L49.752,19.504 C48.972,19.312 48.66,18.904 48.66,18.352 C48.66,17.764 49.128,17.38 49.788,17.38 C50.568,17.38 51.06,17.896 51.168,18.748 L52.896,18.748 C52.704,16.816 51.348,16 49.884,16 C48.408,16 46.86,16.792 46.86,18.52 Z" id="Path"></path>
        </g>
        <g id="LENGTH" transform="translate(351.004000, 89.144000)" fill="#10162F" fill-rule="nonzero">
            <polygon id="Path" points="1.8 0.156 0 0.156 0 8.856 5.856 8.856 5.856 7.308 1.8 7.308"></polygon>
            <polygon id="Path" points="7.776 8.856 13.044 8.856 13.044 7.308 9.576 7.308 9.576 5.184 12.804 5.184 12.804 3.636 9.576 3.636 9.576 1.704 13.044 1.704 13.044 0.156 7.776 0.156"></polygon>
            <polygon id="Path" points="21.108 8.856 21.108 0.156 19.308 0.156 19.308 6.156 17.388 0.156 15.132 0.156 15.132 8.856 16.932 8.856 16.932 2.844 18.84 8.856"></polygon>
            <path d="M29.148,3.06 C29.004,1.212 27.888,0 26.004,0 C23.7,0 22.5,1.692 22.5,4.5 C22.5,7.32 23.664,9.012 25.776,9.012 C26.7,9.012 27.336,8.64 27.744,7.776 L27.804,8.856 L29.184,8.856 L29.184,4.2 L25.788,4.2 L25.788,5.616 L27.372,5.616 L27.372,5.82 C27.372,6.924 26.772,7.596 25.944,7.596 C24.936,7.596 24.408,6.72 24.408,4.5 C24.408,2.328 24.936,1.416 25.944,1.416 C26.784,1.416 27.3,1.944 27.372,3.06 L29.148,3.06 Z" id="Path"></path>
            <polygon id="Path" points="32.724 8.856 34.524 8.856 34.524 1.704 36.984 1.704 36.984 0.156 30.264 0.156 30.264 1.704 32.724 1.704"></polygon>
            <polygon id="Path" points="42.636 0.156 42.636 3.636 40.116 3.636 40.116 0.156 38.316 0.156 38.316 8.856 40.116 8.856 40.116 5.184 42.636 5.184 42.636 8.856 44.436 8.856 44.436 0.156"></polygon>
        </g>
        <g id="DATA" transform="translate(464.920000, 89.300000)" fill="#10162F" fill-rule="nonzero">
            <path d="M4.332,4.344 C4.332,6.636 3.42,7.224 1.956,7.224 L1.8,7.224 L1.8,1.464 L1.956,1.464 C3.42,1.464 4.332,2.04 4.332,4.344 Z M0,0 L0,8.7 L1.992,8.7 C4.368,8.7 6.24,7.656 6.24,4.344 C6.24,1.02 4.404,0 2.04,0 L0,0 Z" id="Shape"></path>
            <path d="M7.344,8.7 L9.264,8.7 L9.66,6.888 L11.7,6.888 L12.096,8.7 L14.064,8.7 L11.82,0 L9.576,0 L7.344,8.7 Z M10.692,2.292 L11.388,5.484 L9.972,5.484 L10.692,2.292 Z" id="Shape"></path>
            <polygon id="Path" points="17.556 8.7 19.356 8.7 19.356 1.548 21.816 1.548 21.816 0 15.096 0 15.096 1.548 17.556 1.548"></polygon>
            <path d="M22.848,8.7 L24.768,8.7 L25.164,6.888 L27.204,6.888 L27.6,8.7 L29.568,8.7 L27.324,0 L25.08,0 L22.848,8.7 Z M26.196,2.292 L26.892,5.484 L25.476,5.484 L26.196,2.292 Z" id="Shape"></path>
        </g>
        <g id="CRC" transform="translate(578.734000, 89.144000)" fill="#10162F" fill-rule="nonzero">
            <path d="M4.716,5.832 C4.632,7.128 4.128,7.596 3.348,7.596 C2.364,7.596 1.908,6.72 1.908,4.5 C1.908,2.328 2.388,1.416 3.348,1.416 C4.212,1.416 4.572,1.98 4.668,3.168 L6.432,3.168 C6.264,1.26 5.34,0 3.42,0 C1.152,0 -2.27373675e-13,1.692 -2.27373675e-13,4.5 C-2.27373675e-13,7.32 1.092,9.012 3.36,9.012 C5.304,9.012 6.288,7.86 6.504,5.832 L4.716,5.832 Z" id="Path"></path>
            <path d="M12.3,8.856 L14.28,8.856 L12.336,4.944 C13.248,4.608 13.896,3.984 13.896,2.736 C13.896,0.576 12.396,0.156 10.416,0.156 L8.1,0.156 L8.1,8.856 L9.9,8.856 L9.9,5.328 L10.416,5.328 L10.584,5.328 L12.3,8.856 Z M10.476,1.62 C11.328,1.62 11.988,1.836 11.988,2.772 C11.988,3.708 11.328,3.912 10.476,3.912 L9.9,3.912 L9.9,1.62 L10.476,1.62 Z" id="Shape"></path>
            <path d="M20.22,5.832 C20.136,7.128 19.632,7.596 18.852,7.596 C17.868,7.596 17.412,6.72 17.412,4.5 C17.412,2.328 17.892,1.416 18.852,1.416 C19.716,1.416 20.076,1.98 20.172,3.168 L21.936,3.168 C21.768,1.26 20.844,0 18.924,0 C16.656,0 15.504,1.692 15.504,4.5 C15.504,7.32 16.596,9.012 18.864,9.012 C20.808,9.012 21.792,7.86 22.008,5.832 L20.22,5.832 Z" id="Path"></path>
        </g>
        <polygon id="Line" fill="#10162F" fill-rule="nonzero" points="128 59 128 129 127 129 127 59"></polygon>
        <polygon id="Line-Copy" fill="#10162F" fill-rule="nonzero" points="147 59 147 129 146 129 146 59"></polygon>
        <polygon id="Line-Copy-2" fill="#10162F" fill-rule="nonzero" points="247 59 247 129 246 129 246 59"></polygon>
        <polygon id="Line-Copy-3" fill="#10162F" fill-rule="nonzero" points="347 59 347 129 346 129 346 59"></polygon>
        <polygon id="Line-Copy-4" fill="#10162F" fill-rule="nonzero" points="400 59 400 129 399 129 399 59"></polygon>
        <polygon id="Line-Copy-5" fill="#10162F" fill-rule="nonzero" points="560 59 560 129 559 129 559 59"></polygon>
        <path d="M640,0 L640,184 L0,184 L0,0 L640,0 Z M639,1 L1,1 L1,183 L639,183 L639,1 Z" id="Rectangle" fill="#10162F" fill-rule="nonzero"></path>
        <g id="IEEE-802.3-ETHERNET" transform="translate(189.280000, 24.672000)" fill="#10162F" fill-rule="nonzero">
            <polygon id="Path" points="0 0.128 2.08 0.128 2.08 11.328 0 11.328"></polygon>
            <polygon id="Path" points="4.64 0.128 11.568 0.128 11.568 2.048 6.72 2.048 6.72 4.4 10.608 4.4 10.608 6.32 6.72 6.32 6.72 9.408 11.728 9.408 11.728 11.328 4.64 11.328"></polygon>
            <polygon id="Path" points="13.744 0.128 20.672 0.128 20.672 2.048 15.824 2.048 15.824 4.4 19.712 4.4 19.712 6.32 15.824 6.32 15.824 9.408 20.832 9.408 20.832 11.328 13.744 11.328"></polygon>
            <polygon id="Path" points="22.848 0.128 29.776 0.128 29.776 2.048 24.928 2.048 24.928 4.4 28.816 4.4 28.816 6.32 24.928 6.32 24.928 9.408 29.936 9.408 29.936 11.328 22.848 11.328"></polygon>
            <path d="M39.056,11.456 C38.3946667,11.456 37.7866667,11.3146667 37.232,11.032 C36.6773333,10.7493333 36.2346667,10.3466667 35.904,9.824 C35.5733333,9.30133333 35.408,8.688 35.408,7.984 C35.408,7.36533333 35.536,6.82933333 35.792,6.376 C36.048,5.92266667 36.4106667,5.56266667 36.88,5.296 C36.5493333,5.02933333 36.2933333,4.704 36.112,4.32 C35.9306667,3.936 35.84,3.51466667 35.84,3.056 C35.84,2.50133333 35.976,1.992 36.248,1.528 C36.52,1.064 36.9013333,0.693333333 37.392,0.416 C37.8826667,0.138666667 38.4373333,0 39.056,0 C39.6746667,0 40.2293333,0.138666667 40.72,0.416 C41.2106667,0.693333333 41.592,1.064 41.864,1.528 C42.136,1.992 42.272,2.50133333 42.272,3.056 C42.272,3.51466667 42.1813333,3.936 42,4.32 C41.8186667,4.704 41.5573333,5.02933333 41.216,5.296 C41.6853333,5.56266667 42.0506667,5.92266667 42.312,6.376 C42.5733333,6.82933333 42.704,7.36533333 42.704,7.984 C42.704,8.688 42.5386667,9.30133333 42.208,9.824 C41.8773333,10.3466667 41.4346667,10.7493333 40.88,11.032 C40.3253333,11.3146667 39.7173333,11.456 39.056,11.456 Z M39.056,4.512 C39.4613333,4.512 39.7866667,4.38133333 40.032,4.12 C40.2773333,3.85866667 40.4,3.51466667 40.4,3.088 C40.4,2.672 40.2773333,2.336 40.032,2.08 C39.7866667,1.824 39.4613333,1.696 39.056,1.696 C38.6506667,1.696 38.3253333,1.824 38.08,2.08 C37.8346667,2.336 37.712,2.672 37.712,3.088 C37.712,3.51466667 37.8346667,3.85866667 38.08,4.12 C38.3253333,4.38133333 38.6506667,4.512 39.056,4.512 Z M39.056,9.6 C39.5253333,9.6 39.9146667,9.456 40.224,9.168 C40.5333333,8.88 40.688,8.48533333 40.688,7.984 C40.688,7.48266667 40.5333333,7.088 40.224,6.8 C39.9146667,6.512 39.5253333,6.368 39.056,6.368 C38.5866667,6.368 38.1973333,6.512 37.888,6.8 C37.5786667,7.088 37.424,7.48266667 37.424,7.984 C37.424,8.48533333 37.5786667,8.88 37.888,9.168 C38.1973333,9.456 38.5866667,9.6 39.056,9.6 Z" id="Shape"></path>
            <path d="M48.336,11.456 C47.0133333,11.456 45.9946667,10.952 45.28,9.944 C44.5653333,8.936 44.208,7.53066667 44.208,5.728 C44.208,3.92533333 44.5653333,2.52 45.28,1.512 C45.9946667,0.504 47.0133333,0 48.336,0 C49.6586667,0 50.6773333,0.504 51.392,1.512 C52.1066667,2.52 52.464,3.92533333 52.464,5.728 C52.464,7.53066667 52.1066667,8.936 51.392,9.944 C50.6773333,10.952 49.6586667,11.456 48.336,11.456 Z M48.336,9.6 C49.7653333,9.6 50.48,8.30933333 50.48,5.728 C50.48,3.14666667 49.7653333,1.856 48.336,1.856 C46.9066667,1.856 46.192,3.14666667 46.192,5.728 C46.192,8.30933333 46.9066667,9.6 48.336,9.6 Z" id="Shape"></path>
            <path d="M57.68,5.36 C58,4.95466667 58.224,4.59733333 58.352,4.288 C58.48,3.97866667 58.544,3.65866667 58.544,3.328 C58.544,2.86933333 58.4266667,2.50933333 58.192,2.248 C57.9573333,1.98666667 57.616,1.856 57.168,1.856 C56.7626667,1.856 56.4346667,1.984 56.184,2.24 C55.9333333,2.496 55.776,2.85866667 55.712,3.328 L53.856,2.976 C53.888,2.41066667 54.0533333,1.904 54.352,1.456 C54.6506667,1.008 55.0506667,0.653333333 55.552,0.392 C56.0533333,0.130666667 56.608,0 57.216,0 C58.2613333,0 59.08,0.298666667 59.672,0.896 C60.264,1.49333333 60.56,2.27733333 60.56,3.248 C60.56,4.176 60.24,5.06133333 59.6,5.904 L56.864,9.472 L60.8,9.472 L60.8,11.328 L53.68,11.328 L53.68,10.528 L57.68,5.36 Z" id="Path"></path>
            <path d="M63.664,11.424 C63.28,11.424 62.96,11.296 62.704,11.04 C62.448,10.784 62.32,10.464 62.32,10.08 C62.32,9.696 62.448,9.376 62.704,9.12 C62.96,8.864 63.28,8.736 63.664,8.736 C64.048,8.736 64.368,8.864 64.624,9.12 C64.88,9.376 65.008,9.696 65.008,10.08 C65.008,10.464 64.88,10.784 64.624,11.04 C64.368,11.296 64.048,11.424 63.664,11.424 Z" id="Path"></path>
            <path d="M70.288,11.456 C69.6053333,11.456 68.992,11.3173333 68.448,11.04 C67.904,10.7626667 67.4666667,10.3786667 67.136,9.888 C66.8053333,9.39733333 66.608,8.84266667 66.544,8.224 L68.48,7.968 C68.7466667,9.056 69.3493333,9.6 70.288,9.6 C70.8106667,9.6 71.2373333,9.42933333 71.568,9.088 C71.8986667,8.74666667 72.064,8.29333333 72.064,7.728 C72.064,7.09866667 71.9013333,6.61333333 71.576,6.272 C71.2506667,5.93066667 70.8266667,5.76 70.304,5.76 C69.9626667,5.76 69.6373333,5.84 69.328,6 L68.528,4.88 L70.64,1.984 L67.072,1.984 L67.072,0.128 L73.488,0.128 L73.488,0.832 L70.848,4.4 C71.04,4.37866667 71.1893333,4.368 71.296,4.368 C72.1493333,4.368 72.8266667,4.67466667 73.328,5.288 C73.8293333,5.90133333 74.08,6.704 74.08,7.696 C74.08,8.45333333 73.9146667,9.11733333 73.584,9.688 C73.2533333,10.2586667 72.8026667,10.696 72.232,11 C71.6613333,11.304 71.0133333,11.456 70.288,11.456 Z" id="Path"></path>
            <polygon id="Path" points="80 0.128 86.928 0.128 86.928 2.048 82.08 2.048 82.08 4.4 85.968 4.4 85.968 6.32 82.08 6.32 82.08 9.408 87.088 9.408 87.088 11.328 80 11.328"></polygon>
            <polygon id="Path" points="91.392 2.048 88.272 2.048 88.272 0.128 96.592 0.128 96.592 2.048 93.472 2.048 93.472 11.328 91.392 11.328"></polygon>
            <polygon id="Path" points="97.936 0.128 100.016 0.128 100.016 4.384 104.496 4.384 104.496 0.128 106.576 0.128 106.576 11.328 104.496 11.328 104.496 6.304 100.016 6.304 100.016 11.328 97.936 11.328"></polygon>
            <polygon id="Path" points="109.136 0.128 116.064 0.128 116.064 2.048 111.216 2.048 111.216 4.4 115.104 4.4 115.104 6.32 111.216 6.32 111.216 9.408 116.224 9.408 116.224 11.328 109.136 11.328"></polygon>
            <path d="M122.32,0.128 C123.408,0.128 124.248,0.418666667 124.84,1 C125.432,1.58133333 125.728,2.352 125.728,3.312 C125.728,4.05866667 125.546667,4.696 125.184,5.224 C124.821333,5.752 124.304,6.11733333 123.632,6.32 L126.736,11.328 L124.416,11.328 L121.408,6.496 L120.32,6.496 L120.32,11.328 L118.24,11.328 L118.24,0.128 L122.32,0.128 Z M122.336,4.576 C122.741333,4.576 123.061333,4.47466667 123.296,4.272 C123.530667,4.06933333 123.648,3.74933333 123.648,3.312 C123.648,2.87466667 123.530667,2.55466667 123.296,2.352 C123.061333,2.14933333 122.741333,2.048 122.336,2.048 L120.32,2.048 L120.32,4.576 L122.336,4.576 Z" id="Shape"></path>
            <polygon id="Path" points="127.984 0.128 130.176 0.128 134.288 7.52 134.288 0.128 136.368 0.128 136.368 11.328 134.176 11.328 130.064 3.936 130.064 11.328 127.984 11.328"></polygon>
            <polygon id="Path" points="138.928 0.128 145.856 0.128 145.856 2.048 141.008 2.048 141.008 4.4 144.896 4.4 144.896 6.32 141.008 6.32 141.008 9.408 146.016 9.408 146.016 11.328 138.928 11.328"></polygon>
            <polygon id="Path" points="150.32 2.048 147.2 2.048 147.2 0.128 155.52 0.128 155.52 2.048 152.4 2.048 152.4 11.328 150.32 11.328"></polygon>
            <polygon id="Path" points="161.152 0.128 168.24 0.128 168.24 2.048 163.232 2.048 163.232 4.608 167.264 4.608 167.264 6.528 163.232 6.528 163.232 11.328 161.152 11.328"></polygon>
            <path d="M171.44,3.264 L171.44,4.576 C171.728,4.11733333 172.08,3.76266667 172.496,3.512 C172.912,3.26133333 173.354667,3.136 173.824,3.136 C174.122667,3.136 174.448,3.18933333 174.8,3.296 L174.432,5.136 C174.186667,4.98666667 173.909333,4.912 173.6,4.912 C172.970667,4.912 172.453333,5.19733333 172.048,5.768 C171.642667,6.33866667 171.44,7.23733333 171.44,8.464 L171.44,11.328 L169.456,11.328 L169.456,3.264 L171.44,3.264 Z" id="Path"></path>
            <path d="M177.728,11.456 C177.013333,11.456 176.426667,11.2426667 175.968,10.816 C175.509333,10.3893333 175.28,9.78666667 175.28,9.008 C175.28,8.208 175.584,7.568 176.192,7.088 C176.8,6.608 177.621333,6.368 178.656,6.368 L180.064,6.368 L180.064,6.016 C180.064,5.62133333 179.930667,5.32533333 179.664,5.128 C179.397333,4.93066667 179.061333,4.832 178.656,4.832 C177.962667,4.832 177.498667,5.14133333 177.264,5.76 L175.584,5.376 C175.712,4.704 176.056,4.16266667 176.616,3.752 C177.176,3.34133333 177.856,3.136 178.656,3.136 C179.733333,3.136 180.568,3.42133333 181.16,3.992 C181.752,4.56266667 182.048,5.40266667 182.048,6.512 L182.048,11.328 L180.416,11.328 L180.208,10.304 C179.578667,11.072 178.752,11.456 177.728,11.456 Z M178.256,9.76 C178.736,9.76 179.157333,9.608 179.52,9.304 C179.882667,9 180.064,8.59733333 180.064,8.096 L180.064,7.936 L178.736,7.936 C178.298667,7.936 177.96,8.02133333 177.72,8.192 C177.48,8.36266667 177.36,8.624 177.36,8.976 C177.36,9.21066667 177.442667,9.4 177.608,9.544 C177.773333,9.688 177.989333,9.76 178.256,9.76 Z" id="Shape"></path>
            <path d="M186.048,3.264 L186.048,4.56 C186.357333,4.09066667 186.696,3.736 187.064,3.496 C187.432,3.256 187.866667,3.136 188.368,3.136 C188.890667,3.136 189.354667,3.27466667 189.76,3.552 C190.165333,3.82933333 190.453333,4.24533333 190.624,4.8 C190.912,4.27733333 191.272,3.86933333 191.704,3.576 C192.136,3.28266667 192.597333,3.136 193.088,3.136 C193.834667,3.136 194.421333,3.35466667 194.848,3.792 C195.274667,4.22933333 195.488,4.83733333 195.488,5.616 L195.488,11.328 L193.504,11.328 L193.504,5.952 C193.504,5.20533333 193.173333,4.832 192.512,4.832 C192,4.832 191.581333,5.12 191.256,5.696 C190.930667,6.272 190.768,7.104 190.768,8.192 L190.768,11.328 L188.784,11.328 L188.784,5.952 C188.784,5.20533333 188.453333,4.832 187.792,4.832 C187.28,4.832 186.861333,5.13333333 186.536,5.736 C186.210667,6.33866667 186.048,7.216 186.048,8.368 L186.048,11.328 L184.064,11.328 L184.064,3.264 L186.048,3.264 Z" id="Path"></path>
            <path d="M204.912,7.936 L199.344,7.936 C199.429333,8.53333333 199.64,8.98666667 199.976,9.296 C200.312,9.60533333 200.741333,9.76 201.264,9.76 C201.712,9.76 202.088,9.65866667 202.392,9.456 C202.696,9.25333333 202.970667,8.93866667 203.216,8.512 L204.816,9.104 C204.485333,9.86133333 204.024,10.4426667 203.432,10.848 C202.84,11.2533333 202.08,11.456 201.152,11.456 C200.277333,11.456 199.549333,11.2506667 198.968,10.84 C198.386667,10.4293333 197.96,9.90666667 197.688,9.272 C197.416,8.63733333 197.28,7.97866667 197.28,7.296 C197.28,6.61333333 197.416,5.95466667 197.688,5.32 C197.96,4.68533333 198.386667,4.16266667 198.968,3.752 C199.549333,3.34133333 200.277333,3.136 201.152,3.136 C201.994667,3.136 202.698667,3.336 203.264,3.736 C203.829333,4.136 204.245333,4.64 204.512,5.248 C204.778667,5.856 204.912,6.48 204.912,7.12 L204.912,7.936 Z M202.88,6.368 C202.784,5.92 202.594667,5.552 202.312,5.264 C202.029333,4.976 201.642667,4.832 201.152,4.832 C200.725333,4.832 200.357333,4.96266667 200.048,5.224 C199.738667,5.48533333 199.52,5.86666667 199.392,6.368 L202.88,6.368 Z" id="Shape"></path>
            <polygon id="Path" points="210.832 0.128 217.92 0.128 217.92 2.048 212.912 2.048 212.912 4.608 216.944 4.608 216.944 6.528 212.912 6.528 212.912 11.328 210.832 11.328"></polygon>
            <path d="M222.656,11.456 C221.813333,11.456 221.082667,11.2746667 220.464,10.912 C219.845333,10.5493333 219.373333,10.0533333 219.048,9.424 C218.722667,8.79466667 218.56,8.08533333 218.56,7.296 C218.56,6.50666667 218.722667,5.79733333 219.048,5.168 C219.373333,4.53866667 219.845333,4.04266667 220.464,3.68 C221.082667,3.31733333 221.813333,3.136 222.656,3.136 C223.498667,3.136 224.229333,3.31733333 224.848,3.68 C225.466667,4.04266667 225.938667,4.53866667 226.264,5.168 C226.589333,5.79733333 226.752,6.50666667 226.752,7.296 C226.752,8.08533333 226.589333,8.79466667 226.264,9.424 C225.938667,10.0533333 225.466667,10.5493333 224.848,10.912 C224.229333,11.2746667 223.498667,11.456 222.656,11.456 Z M222.656,9.76 C223.274667,9.76 223.765333,9.52266667 224.128,9.048 C224.490667,8.57333333 224.672,7.98933333 224.672,7.296 C224.672,6.60266667 224.490667,6.01866667 224.128,5.544 C223.765333,5.06933333 223.274667,4.832 222.656,4.832 C222.037333,4.832 221.546667,5.06933333 221.184,5.544 C220.821333,6.01866667 220.64,6.60266667 220.64,7.296 C220.64,7.98933333 220.821333,8.57333333 221.184,9.048 C221.546667,9.52266667 222.037333,9.76 222.656,9.76 Z" id="Shape"></path>
            <path d="M230.528,3.264 L230.528,4.576 C230.816,4.11733333 231.168,3.76266667 231.584,3.512 C232,3.26133333 232.442667,3.136 232.912,3.136 C233.210667,3.136 233.536,3.18933333 233.888,3.296 L233.52,5.136 C233.274667,4.98666667 232.997333,4.912 232.688,4.912 C232.058667,4.912 231.541333,5.19733333 231.136,5.768 C230.730667,6.33866667 230.528,7.23733333 230.528,8.464 L230.528,11.328 L228.544,11.328 L228.544,3.264 L230.528,3.264 Z" id="Path"></path>
            <path d="M237.136,3.264 L237.136,4.56 C237.445333,4.09066667 237.784,3.736 238.152,3.496 C238.52,3.256 238.954667,3.136 239.456,3.136 C239.978667,3.136 240.442667,3.27466667 240.848,3.552 C241.253333,3.82933333 241.541333,4.24533333 241.712,4.8 C242,4.27733333 242.36,3.86933333 242.792,3.576 C243.224,3.28266667 243.685333,3.136 244.176,3.136 C244.922667,3.136 245.509333,3.35466667 245.936,3.792 C246.362667,4.22933333 246.576,4.83733333 246.576,5.616 L246.576,11.328 L244.592,11.328 L244.592,5.952 C244.592,5.20533333 244.261333,4.832 243.6,4.832 C243.088,4.832 242.669333,5.12 242.344,5.696 C242.018667,6.272 241.856,7.104 241.856,8.192 L241.856,11.328 L239.872,11.328 L239.872,5.952 C239.872,5.20533333 239.541333,4.832 238.88,4.832 C238.368,4.832 237.949333,5.13333333 237.624,5.736 C237.298667,6.33866667 237.136,7.216 237.136,8.368 L237.136,11.328 L235.152,11.328 L235.152,3.264 L237.136,3.264 Z" id="Path"></path>
            <path d="M250.592,11.456 C249.877333,11.456 249.290667,11.2426667 248.832,10.816 C248.373333,10.3893333 248.144,9.78666667 248.144,9.008 C248.144,8.208 248.448,7.568 249.056,7.088 C249.664,6.608 250.485333,6.368 251.52,6.368 L252.928,6.368 L252.928,6.016 C252.928,5.62133333 252.794667,5.32533333 252.528,5.128 C252.261333,4.93066667 251.925333,4.832 251.52,4.832 C250.826667,4.832 250.362667,5.14133333 250.128,5.76 L248.448,5.376 C248.576,4.704 248.92,4.16266667 249.48,3.752 C250.04,3.34133333 250.72,3.136 251.52,3.136 C252.597333,3.136 253.432,3.42133333 254.024,3.992 C254.616,4.56266667 254.912,5.40266667 254.912,6.512 L254.912,11.328 L253.28,11.328 L253.072,10.304 C252.442667,11.072 251.616,11.456 250.592,11.456 Z M251.12,9.76 C251.6,9.76 252.021333,9.608 252.384,9.304 C252.746667,9 252.928,8.59733333 252.928,8.096 L252.928,7.936 L251.6,7.936 C251.162667,7.936 250.824,8.02133333 250.584,8.192 C250.344,8.36266667 250.224,8.624 250.224,8.976 C250.224,9.21066667 250.306667,9.4 250.472,9.544 C250.637333,9.688 250.853333,9.76 251.12,9.76 Z" id="Shape"></path>
            <path d="M260.224,11.456 C259.296,11.456 258.570667,11.2053333 258.048,10.704 C257.525333,10.2026667 257.264,9.46133333 257.264,8.48 L257.264,4.96 L256.016,4.96 L256.016,3.264 L257.264,3.264 L257.264,1.248 L259.248,0 L259.248,3.264 L261.376,3.264 L261.376,4.96 L259.248,4.96 L259.248,8.448 C259.248,8.928 259.336,9.26666667 259.512,9.464 C259.688,9.66133333 259.952,9.76 260.304,9.76 C260.570667,9.76 260.826667,9.696 261.072,9.568 L261.536,11.168 C261.12,11.36 260.682667,11.456 260.224,11.456 Z" id="Path"></path>
        </g>
    </g>
</svg>